<mxfile host="app.diagrams.net" agent="Mozilla/5.0 (Windows NT 10.0; Win64; x64) AppleWebKit/537.36 (KHTML, like Gecko) Chrome/138.0.0.0 Safari/537.36 Edg/138.0.0.0" version="28.0.3">
  <diagram name="第 1 页" id="SC4Ad5JtYd1S4jJcS6Bw">
    <mxGraphModel dx="1378" dy="764" grid="1" gridSize="10" guides="1" tooltips="1" connect="1" arrows="1" fold="1" page="1" pageScale="1" pageWidth="827" pageHeight="1169" math="0" shadow="0">
      <root>
        <mxCell id="0" />
        <mxCell id="1" parent="0" />
        <mxCell id="1iVRihWYdXtMzknbXpwd-4" style="edgeStyle=orthogonalEdgeStyle;rounded=0;orthogonalLoop=1;jettySize=auto;html=1;" edge="1" parent="1" source="1iVRihWYdXtMzknbXpwd-2" target="1iVRihWYdXtMzknbXpwd-3">
          <mxGeometry relative="1" as="geometry" />
        </mxCell>
        <mxCell id="1iVRihWYdXtMzknbXpwd-6" value="program to save content&amp;nbsp;&lt;div&gt;to Whale TV S3 bucket&lt;/div&gt;" style="edgeLabel;html=1;align=center;verticalAlign=middle;resizable=0;points=[];" vertex="1" connectable="0" parent="1iVRihWYdXtMzknbXpwd-4">
          <mxGeometry x="-0.0698" relative="1" as="geometry">
            <mxPoint y="-3" as="offset" />
          </mxGeometry>
        </mxCell>
        <mxCell id="1iVRihWYdXtMzknbXpwd-8" style="edgeStyle=orthogonalEdgeStyle;rounded=0;orthogonalLoop=1;jettySize=auto;html=1;entryX=0;entryY=0.75;entryDx=0;entryDy=0;" edge="1" parent="1" source="1iVRihWYdXtMzknbXpwd-2" target="1iVRihWYdXtMzknbXpwd-7">
          <mxGeometry relative="1" as="geometry">
            <Array as="points">
              <mxPoint x="100" y="340" />
            </Array>
          </mxGeometry>
        </mxCell>
        <mxCell id="1iVRihWYdXtMzknbXpwd-9" value="provide feed with&amp;nbsp;&lt;span style=&quot;background-color: light-dark(#ffffff, var(--ge-dark-color, #121212)); color: light-dark(rgb(0, 0, 0), rgb(255, 255, 255));&quot;&gt;content&amp;nbsp;&lt;/span&gt;&lt;div&gt;&lt;span style=&quot;background-color: light-dark(#ffffff, var(--ge-dark-color, #121212)); color: light-dark(rgb(0, 0, 0), rgb(255, 255, 255));&quot;&gt;relative path and file name&lt;/span&gt;&lt;/div&gt;" style="edgeLabel;html=1;align=center;verticalAlign=middle;resizable=0;points=[];" vertex="1" connectable="0" parent="1iVRihWYdXtMzknbXpwd-8">
          <mxGeometry x="0.4541" y="1" relative="1" as="geometry">
            <mxPoint as="offset" />
          </mxGeometry>
        </mxCell>
        <mxCell id="1iVRihWYdXtMzknbXpwd-2" value="" style="shape=actor;whiteSpace=wrap;html=1;" vertex="1" parent="1">
          <mxGeometry x="80" y="110" width="40" height="60" as="geometry" />
        </mxCell>
        <mxCell id="1iVRihWYdXtMzknbXpwd-3" value="&amp;nbsp; Whale TV S3 bucket" style="strokeWidth=2;html=1;shape=mxgraph.flowchart.direct_data;whiteSpace=wrap;align=left;" vertex="1" parent="1">
          <mxGeometry x="292" y="110" width="148" height="60" as="geometry" />
        </mxCell>
        <mxCell id="1iVRihWYdXtMzknbXpwd-16" style="edgeStyle=orthogonalEdgeStyle;rounded=0;orthogonalLoop=1;jettySize=auto;html=1;entryX=0;entryY=0.5;entryDx=0;entryDy=0;" edge="1" parent="1" source="1iVRihWYdXtMzknbXpwd-7" target="1iVRihWYdXtMzknbXpwd-13">
          <mxGeometry relative="1" as="geometry" />
        </mxCell>
        <mxCell id="1iVRihWYdXtMzknbXpwd-17" value="Text" style="edgeLabel;html=1;align=center;verticalAlign=middle;resizable=0;points=[];" vertex="1" connectable="0" parent="1iVRihWYdXtMzknbXpwd-16">
          <mxGeometry x="-0.0615" y="-1" relative="1" as="geometry">
            <mxPoint as="offset" />
          </mxGeometry>
        </mxCell>
        <mxCell id="1iVRihWYdXtMzknbXpwd-18" value="append Whale TV CDN&amp;nbsp;&lt;div&gt;root path for content url&lt;/div&gt;" style="edgeLabel;html=1;align=center;verticalAlign=middle;resizable=0;points=[];" vertex="1" connectable="0" parent="1iVRihWYdXtMzknbXpwd-16">
          <mxGeometry x="-0.0829" y="-2" relative="1" as="geometry">
            <mxPoint as="offset" />
          </mxGeometry>
        </mxCell>
        <mxCell id="1iVRihWYdXtMzknbXpwd-7" value="Whale TV feed parser" style="shape=delay;whiteSpace=wrap;html=1;" vertex="1" parent="1">
          <mxGeometry x="300" y="310" width="150" height="40" as="geometry" />
        </mxCell>
        <mxCell id="1iVRihWYdXtMzknbXpwd-10" value="CP" style="text;strokeColor=none;fillColor=none;align=left;verticalAlign=middle;spacingLeft=4;spacingRight=4;overflow=hidden;points=[[0,0.5],[1,0.5]];portConstraint=eastwest;rotatable=0;whiteSpace=wrap;html=1;" vertex="1" parent="1">
          <mxGeometry x="70" y="180" width="80" height="30" as="geometry" />
        </mxCell>
        <mxCell id="1iVRihWYdXtMzknbXpwd-11" value="Whale TV Media Convert task" style="shape=delay;whiteSpace=wrap;html=1;" vertex="1" parent="1">
          <mxGeometry x="655" y="30" width="180" height="40" as="geometry" />
        </mxCell>
        <mxCell id="1iVRihWYdXtMzknbXpwd-12" value="Whale TV advertisement ingestion task" style="shape=delay;whiteSpace=wrap;html=1;" vertex="1" parent="1">
          <mxGeometry x="655" y="180" width="150" height="40" as="geometry" />
        </mxCell>
        <mxCell id="1iVRihWYdXtMzknbXpwd-20" style="edgeStyle=orthogonalEdgeStyle;rounded=0;orthogonalLoop=1;jettySize=auto;html=1;" edge="1" parent="1" source="1iVRihWYdXtMzknbXpwd-13" target="1iVRihWYdXtMzknbXpwd-19">
          <mxGeometry relative="1" as="geometry" />
        </mxCell>
        <mxCell id="1iVRihWYdXtMzknbXpwd-21" value="user watch content&amp;nbsp;&lt;div&gt;on TV&lt;/div&gt;" style="edgeLabel;html=1;align=center;verticalAlign=middle;resizable=0;points=[];" vertex="1" connectable="0" parent="1iVRihWYdXtMzknbXpwd-20">
          <mxGeometry x="-0.0105" y="2" relative="1" as="geometry">
            <mxPoint as="offset" />
          </mxGeometry>
        </mxCell>
        <mxCell id="1iVRihWYdXtMzknbXpwd-13" value="Whale TV content metadata storage" style="shape=delay;whiteSpace=wrap;html=1;" vertex="1" parent="1">
          <mxGeometry x="655" y="310" width="150" height="40" as="geometry" />
        </mxCell>
        <mxCell id="1iVRihWYdXtMzknbXpwd-22" style="edgeStyle=orthogonalEdgeStyle;rounded=0;orthogonalLoop=1;jettySize=auto;html=1;" edge="1" parent="1" source="1iVRihWYdXtMzknbXpwd-14" target="1iVRihWYdXtMzknbXpwd-19">
          <mxGeometry relative="1" as="geometry" />
        </mxCell>
        <mxCell id="1iVRihWYdXtMzknbXpwd-23" value="TV access Whale TV CDN" style="edgeLabel;html=1;align=center;verticalAlign=middle;resizable=0;points=[];" vertex="1" connectable="0" parent="1iVRihWYdXtMzknbXpwd-22">
          <mxGeometry x="-0.1775" y="1" relative="1" as="geometry">
            <mxPoint as="offset" />
          </mxGeometry>
        </mxCell>
        <mxCell id="1iVRihWYdXtMzknbXpwd-14" value="&amp;nbsp; Whale TV CDN" style="strokeWidth=2;html=1;shape=mxgraph.flowchart.direct_data;whiteSpace=wrap;align=left;" vertex="1" parent="1">
          <mxGeometry x="925" y="120" width="148" height="60" as="geometry" />
        </mxCell>
        <mxCell id="1iVRihWYdXtMzknbXpwd-19" value="" style="sketch=0;outlineConnect=0;gradientColor=none;fontColor=#545B64;strokeColor=none;fillColor=#879196;dashed=0;verticalLabelPosition=bottom;verticalAlign=top;align=center;html=1;fontSize=12;fontStyle=0;aspect=fixed;shape=mxgraph.aws4.illustration_desktop;pointerEvents=1" vertex="1" parent="1">
          <mxGeometry x="949" y="284.5" width="100" height="91" as="geometry" />
        </mxCell>
        <mxCell id="1iVRihWYdXtMzknbXpwd-25" value="If necessary" style="endArrow=open;endSize=12;dashed=1;html=1;rounded=0;entryX=0;entryY=0.5;entryDx=0;entryDy=0;" edge="1" parent="1" target="1iVRihWYdXtMzknbXpwd-11">
          <mxGeometry width="160" relative="1" as="geometry">
            <mxPoint x="430" y="140" as="sourcePoint" />
            <mxPoint x="590" y="140" as="targetPoint" />
          </mxGeometry>
        </mxCell>
        <mxCell id="1iVRihWYdXtMzknbXpwd-26" value="If required" style="endArrow=open;endSize=12;dashed=1;html=1;rounded=0;entryX=0;entryY=0.5;entryDx=0;entryDy=0;" edge="1" parent="1" target="1iVRihWYdXtMzknbXpwd-12">
          <mxGeometry width="160" relative="1" as="geometry">
            <mxPoint x="430" y="140" as="sourcePoint" />
            <mxPoint x="590" y="140" as="targetPoint" />
          </mxGeometry>
        </mxCell>
        <mxCell id="1iVRihWYdXtMzknbXpwd-30" value="" style="endArrow=classic;html=1;rounded=0;entryX=0;entryY=0.5;entryDx=0;entryDy=0;entryPerimeter=0;" edge="1" parent="1" target="1iVRihWYdXtMzknbXpwd-14">
          <mxGeometry width="50" height="50" relative="1" as="geometry">
            <mxPoint x="830" y="50" as="sourcePoint" />
            <mxPoint x="880" as="targetPoint" />
          </mxGeometry>
        </mxCell>
        <mxCell id="1iVRihWYdXtMzknbXpwd-31" value="" style="endArrow=classic;html=1;rounded=0;" edge="1" parent="1">
          <mxGeometry width="50" height="50" relative="1" as="geometry">
            <mxPoint x="800" y="200" as="sourcePoint" />
            <mxPoint x="920" y="150" as="targetPoint" />
          </mxGeometry>
        </mxCell>
      </root>
    </mxGraphModel>
  </diagram>
</mxfile>
